# xmcd CD database file
#
# Track frame offsets:
#	150
#	14225
#	33710
#	55392
#	76482
#	89855
#	105310
#	118662
#	144225
#	163235
#	180692
#	193875
#	206740
#	226742
#
# Disc length: 3195 seconds
#
# Revision: 1
# Processed by: cddbd v1.5.2PL0 Copyright (c) Steve Scherf et al.
# Submitted via: CDex 1.60beta1
#
DISCID=cc0c790e
DTITLE=ГЊГЁГµГ ГЁГ« ГЉГ°ГіГЈ - Г†ГЁГЈГ Г­-Г‹ГЁГ¬Г®Г­
DYEAR=1995
DGENRE=Chanson
TTITLE0=ГќГ«ГҐГЄГІГ°ГЁГ·ГЄГ 
TTITLE1=Г„ГҐГўГ®Г·ГЄГ -ГЇГ Г©
TTITLE2=ГЉГ®Г«ГјГ№ГЁГЄ
TTITLE3=Г„Г®Г°Г®ГЈГ 
TTITLE4=Г”Г°Г ГҐГ°
TTITLE5=Г„Г®ГЎГ°Г Гї, ГЈГ«ГіГЇГ Гї, Г¤Г ГўГ­ГїГї
TTITLE6=ГЉГіГ¬Г®ГўГ Гї
TTITLE7=ГЋГ±ГҐГ­Г­ГЁГ© Г¤Г®Г¦Г¤Гј
TTITLE8=ГЌГҐ Г±ГЇГ Г«ГЁГ«Г , Г«ГѕГЎГЁГ«Г 
TTITLE9=ГЉГ ГІГї
TTITLE10=Г†ГЁГЈГ Г­-Г‹ГЁГ¬Г®Г­
TTITLE11=ГЂ Г±ГҐГ·ГЄГі Г¦Г°ГЁГІГҐ Г±Г Г¬ГЁ
TTITLE12=Г‘ГўГҐГІГ®Г·ГЄГ 
TTITLE13=Г„ГҐГ­Гј ГЄГ ГЄ Г¤ГҐГ­Гј
EXTD=YEAR: 1995
EXTT0=
EXTT1=
EXTT2=
EXTT3=
EXTT4=
EXTT5=
EXTT6=
EXTT7=
EXTT8=
EXTT9=
EXTT10=
EXTT11=
EXTT12=
EXTT13=
PLAYORDER=
